<svg width="124" height="139" viewBox="0 0 124 139" fill="none" xmlns="http://www.w3.org/2000/svg">
<path d="M31.7678 37.0075H34.4882C37.3109 37.0075 39.9743 38.3098 41.7003 40.5339L46.7109 46.9909H35.0177L31.7678 37.0075Z" fill="white"/>
<path d="M39.6473 103.034H76.5212C79.539 103.034 82.3611 104.522 84.058 107.006L89.0925 114.379H89.029L107.281 139H92.1336L79.2937 121.568C75.9652 117.049 70.6738 114.379 65.0457 114.379H39.6473C17.7507 114.379 0 96.7032 0 74.8991C0 55.4348 13.6006 39.9837 32.0963 36.8917C36.3733 36.1766 40.4846 38.3758 43.0624 41.8487L46.7109 46.764H39.6473C24.0428 46.764 11.3929 59.3605 11.3929 74.8991C11.3929 90.4376 24.0428 103.034 39.6473 103.034Z" fill="white"/>
<path d="M38.9637 80.5715H63.9166C66.848 80.5715 69.6004 81.9754 71.3132 84.3442L76.7882 91.9162H38.9637C29.5255 91.9162 21.8744 84.2974 21.8744 74.8991C21.8744 65.5007 29.5255 57.8819 38.9637 57.8819H49.3337C52.2651 57.8819 55.0175 59.2858 56.7303 61.6547L62.2053 69.2267H38.9637C35.8177 69.2267 33.2673 71.7663 33.2673 74.8991C33.2673 78.0318 35.8177 80.5715 38.9637 80.5715Z" fill="white"/>
<path d="M91.9186 101.992H89.1982C86.3755 101.992 83.7121 100.69 81.9862 98.4661L76.9755 92.0091H88.6687L91.9186 101.992Z" fill="white"/>
<path d="M84.0391 35.9659H47.1653C44.1475 35.9659 41.3253 34.4785 39.6284 31.9935L34.5939 24.6211H34.6574L16.4058 0H31.5528L44.3927 17.4323C47.7213 21.9513 53.0127 24.6211 58.6407 24.6211H84.0391C105.936 24.6211 123.686 42.2968 123.686 64.1009C123.686 83.5651 110.086 99.0163 91.5901 102.108C87.3131 102.823 83.2018 100.624 80.624 97.1513L76.9755 92.236H84.0391C99.6436 92.236 112.294 79.6395 112.294 64.1009C112.294 48.5624 99.6436 35.9659 84.0391 35.9659Z" fill="white"/>
<path d="M84.7227 58.4285H59.7698C56.8385 58.4285 54.086 57.0246 52.3732 54.6558L46.8983 47.0838H84.7227C94.1609 47.0838 101.812 54.7026 101.812 64.1009C101.812 73.4992 94.1609 81.1181 84.7227 81.1181H75.2642C72.3328 81.1181 69.5804 79.7141 67.8676 77.3453L62.3926 69.7733H84.7227C87.8688 69.7733 90.4192 67.2337 90.4192 64.1009C90.4192 60.9682 87.8688 58.4285 84.7227 58.4285Z" fill="white"/>
</svg>
