<svg width="174" height="195" viewBox="0 0 174 195" fill="none" xmlns="http://www.w3.org/2000/svg">
<path d="M44.5664 51.917H48.3828C52.3427 51.917 56.0791 53.744 58.5004 56.8641L65.5297 65.9225H49.1256L44.5664 51.917Z" fill="#1FE0BD"/>
<path d="M55.6203 144.544H107.35C111.583 144.544 115.543 146.631 117.923 150.117L124.986 160.46H124.897L150.502 195H129.252L111.239 170.545C106.57 164.205 99.1467 160.46 91.2512 160.46H55.6203C24.9021 160.46 0 135.663 0 105.074C0 77.7683 19.08 56.0923 45.0272 51.7545C51.0273 50.7514 56.795 53.8366 60.4113 58.7086L65.5297 65.6042H55.6203C33.7292 65.6042 15.9829 83.2755 15.9829 105.074C15.9829 126.873 33.7292 144.544 55.6203 144.544Z" fill="#1FE0BD"/>
<path d="M54.6614 113.032H89.6672C93.7795 113.032 97.6409 115.001 100.044 118.325L107.724 128.947H54.6614C41.4207 128.947 30.6871 118.259 30.6871 105.074C30.6871 91.8895 41.4207 81.2012 54.6614 81.2012H69.2092C73.3215 81.2012 77.1828 83.1708 79.5857 86.494L87.2664 97.1166H54.6614C50.2478 97.1166 46.6699 100.679 46.6699 105.074C46.6699 109.469 50.2478 113.032 54.6614 113.032Z" fill="#1FE0BD"/>
<path d="M128.951 143.083H125.134C121.174 143.083 117.438 141.256 115.017 138.136L107.987 129.078H124.391L128.951 143.083Z" fill="#1FE0BD"/>
<path d="M117.897 50.4558H66.1671C61.9335 50.4558 57.9744 48.3691 55.5938 44.883L48.531 34.5404H48.6201L23.0153 0H44.2648L62.2776 24.4554C66.9471 30.7951 74.3703 34.5404 82.2658 34.5404H117.897C148.615 34.5404 173.517 59.3373 173.517 89.9258C173.517 117.232 154.437 138.908 128.49 143.246C122.49 144.249 116.722 141.163 113.106 136.291L107.987 129.396H117.897C139.788 129.396 157.534 111.724 157.534 89.9258C157.534 68.1271 139.788 50.4558 117.897 50.4558Z" fill="#1FE0BD"/>
<path d="M118.856 81.9681H83.8498C79.7374 81.9681 75.8761 79.9986 73.4732 76.6754L65.7925 66.0528H118.856C132.096 66.0528 142.83 76.7411 142.83 89.9258C142.83 103.11 132.096 113.799 118.856 113.799H105.586C101.474 113.799 97.6128 111.829 95.2099 108.506L87.5292 97.8834H118.856C123.269 97.8834 126.847 94.3207 126.847 89.9258C126.847 85.5309 123.269 81.9681 118.856 81.9681Z" fill="#1FE0BD"/>
</svg>
