<svg width="124" height="139" viewBox="0 0 124 139" fill="none" xmlns="http://www.w3.org/2000/svg">
<mask id="mask0_580_7032" style="mask-type:alpha" maskUnits="userSpaceOnUse" x="0" y="0" width="124" height="139">
<path d="M31.7678 37.0075H34.4882C37.3109 37.0075 39.9743 38.3098 41.7003 40.5339L46.7109 46.9909H35.0177L31.7678 37.0075Z" fill="#1FE0BD"/>
<path d="M39.6473 103.034H76.5211C79.5389 103.034 82.3611 104.522 84.058 107.006L89.0925 114.379H89.029L107.281 139H92.1336L79.2937 121.568C75.9652 117.049 70.6738 114.379 65.0457 114.379H39.6473C17.7507 114.379 0 96.7032 0 74.8991C0 55.4348 13.6006 39.9837 32.0963 36.8917C36.3733 36.1766 40.4846 38.3758 43.0624 41.8487L46.7109 46.764H39.6473C24.0428 46.764 11.3929 59.3605 11.3929 74.8991C11.3929 90.4376 24.0428 103.034 39.6473 103.034Z" fill="#1FE0BD"/>
<path d="M38.9637 80.5714H63.9166C66.848 80.5714 69.6004 81.9754 71.3132 84.3442L76.7882 91.9162H38.9637C29.5255 91.9162 21.8744 84.2974 21.8744 74.8991C21.8744 65.5007 29.5255 57.8819 38.9637 57.8819H49.3337C52.2651 57.8819 55.0175 59.2858 56.7303 61.6547L62.2053 69.2267H38.9637C35.8177 69.2267 33.2673 71.7663 33.2673 74.8991C33.2673 78.0318 35.8177 80.5714 38.9637 80.5714Z" fill="#1FE0BD"/>
<path d="M91.9186 101.993H89.1982C86.3755 101.993 83.7121 100.69 81.9862 98.4661L76.9755 92.0091H88.6687L91.9186 101.993Z" fill="#1FE0BD"/>
<path d="M84.0391 35.9659H47.1653C44.1475 35.9659 41.3253 34.4785 39.6284 31.9935L34.5939 24.6211H34.6574L16.4058 0H31.5528L44.3927 17.4323C47.7213 21.9513 53.0127 24.6211 58.6407 24.6211H84.0391C105.936 24.6211 123.686 42.2968 123.686 64.1009C123.686 83.5651 110.086 99.0163 91.5901 102.108C87.3131 102.823 83.2018 100.624 80.624 97.1513L76.9755 92.236H84.0391C99.6436 92.236 112.294 79.6395 112.294 64.1009C112.294 48.5624 99.6436 35.9659 84.0391 35.9659Z" fill="#1FE0BD"/>
<path d="M84.7227 58.4285H59.7698C56.8385 58.4285 54.086 57.0246 52.3732 54.6558L46.8983 47.0838H84.7227C94.1609 47.0838 101.812 54.7026 101.812 64.1009C101.812 73.4992 94.1609 81.1181 84.7227 81.1181H75.2642C72.3328 81.1181 69.5804 79.7141 67.8676 77.3453L62.3926 69.7733H84.7227C87.8688 69.7733 90.4192 67.2337 90.4192 64.1009C90.4192 60.9682 87.8688 58.4285 84.7227 58.4285Z" fill="#1FE0BD"/>
</mask>
<g mask="url(#mask0_580_7032)">
<path fill-rule="evenodd" clip-rule="evenodd" d="M-227.137 -181H-229.554C-233.616 -180.196 -236.18 -178.544 -238.656 -176.949C-241.79 -174.929 -244.784 -173 -250.5 -173C-257.841 -173 -262.226 -175.514 -266.226 -177.807C-268.496 -179.109 -270.643 -180.34 -273.137 -181H-287V226H143V-181H106.446C102.384 -180.196 99.8199 -178.544 97.3445 -176.949C94.2097 -174.929 91.2163 -173 85.5 -173C78.1585 -173 73.7744 -175.514 69.7744 -177.807C67.5036 -179.109 65.3566 -180.34 62.8626 -181H60.4462C56.3836 -180.196 53.8199 -178.544 51.3445 -176.949C48.2097 -174.929 45.2163 -173 39.5 -173C32.1585 -173 27.7744 -175.514 23.7744 -177.807C21.5036 -179.109 19.3566 -180.34 16.8626 -181H11.4463C7.38367 -180.196 4.81992 -178.544 2.34445 -176.949C-0.790344 -174.929 -3.78366 -173 -9.50003 -173C-16.8415 -173 -21.2256 -175.514 -25.2256 -177.807C-27.4964 -179.109 -29.6434 -180.34 -32.1374 -181H-34.5537C-38.6163 -180.196 -41.1801 -178.544 -43.6556 -176.949C-46.7904 -174.929 -49.7837 -173 -55.5 -173C-62.8415 -173 -67.2256 -175.514 -71.2256 -177.807C-73.4964 -179.109 -75.6434 -180.34 -78.1374 -181H-85.5537C-89.6163 -180.196 -92.1801 -178.544 -94.6556 -176.949C-97.7904 -174.929 -100.784 -173 -106.5 -173C-113.841 -173 -118.226 -175.514 -122.226 -177.807C-124.496 -179.109 -126.643 -180.34 -129.137 -181H-131.554C-135.616 -180.196 -138.18 -178.544 -140.656 -176.949C-143.79 -174.929 -146.784 -173 -152.5 -173C-159.841 -173 -164.226 -175.514 -168.226 -177.807C-170.496 -179.109 -172.643 -180.34 -175.137 -181H-183.554C-187.616 -180.196 -190.18 -178.544 -192.656 -176.949C-195.79 -174.929 -198.784 -173 -204.5 -173C-211.841 -173 -216.226 -175.514 -220.226 -177.807C-222.496 -179.109 -224.643 -180.34 -227.137 -181Z" fill="white"/>
<path fill-rule="evenodd" clip-rule="evenodd" d="M-227.137 -12H-229.554C-233.616 -11.196 -236.18 -9.54401 -238.656 -7.94885C-241.79 -5.92883 -244.784 -4 -250.5 -4C-257.841 -4 -262.226 -6.51371 -266.226 -8.80717C-268.496 -10.1092 -270.643 -11.3402 -273.137 -12H-287V395H143V-12H106.446C102.384 -11.196 99.8199 -9.54401 97.3445 -7.94885C94.2097 -5.92883 91.2163 -4 85.5 -4C78.1585 -4 73.7744 -6.51371 69.7744 -8.80717C67.5036 -10.1092 65.3566 -11.3402 62.8626 -12H60.4462C56.3836 -11.196 53.8199 -9.54401 51.3445 -7.94885C48.2097 -5.92883 45.2163 -4 39.5 -4C32.1585 -4 27.7744 -6.51371 23.7744 -8.80717C21.5036 -10.1092 19.3566 -11.3402 16.8626 -12H11.4463C7.38367 -11.196 4.81992 -9.54401 2.34445 -7.94885C-0.790344 -5.92883 -3.78366 -4 -9.50003 -4C-16.8415 -4 -21.2256 -6.51371 -25.2256 -8.80717C-27.4964 -10.1092 -29.6434 -11.3402 -32.1374 -12H-34.5537C-38.6163 -11.196 -41.1801 -9.54401 -43.6556 -7.94885C-46.7904 -5.92883 -49.7837 -4 -55.5 -4C-62.8415 -4 -67.2256 -6.51371 -71.2256 -8.80717C-73.4964 -10.1092 -75.6434 -11.3402 -78.1374 -12H-85.5537C-89.6163 -11.196 -92.1801 -9.54401 -94.6556 -7.94885C-97.7904 -5.92883 -100.784 -4 -106.5 -4C-113.841 -4 -118.226 -6.51371 -122.226 -8.80717C-124.496 -10.1092 -126.643 -11.3402 -129.137 -12H-131.554C-135.616 -11.196 -138.18 -9.54401 -140.656 -7.94885C-143.79 -5.92883 -146.784 -4 -152.5 -4C-159.841 -4 -164.226 -6.51371 -168.226 -8.80717C-170.496 -10.1092 -172.643 -11.3402 -175.137 -12H-183.554C-187.616 -11.196 -190.18 -9.54401 -192.656 -7.94885C-195.79 -5.92883 -198.784 -4 -204.5 -4C-211.841 -4 -216.226 -6.51371 -220.226 -8.80717C-222.496 -10.1092 -224.643 -11.3402 -227.137 -12Z" fill="black"/>
</g>
</svg>
