<svg width="121" height="37" viewBox="0 0 121 37" fill="none" xmlns="http://www.w3.org/2000/svg">
<ellipse cx="61.7339" cy="19.6958" rx="10.8106" ry="3.88321" transform="rotate(155.572 61.7339 19.6958)" fill="#0579B1"/>
<path fill-rule="evenodd" clip-rule="evenodd" d="M52.5537 21.5855C51.8387 22.5694 51.5753 23.4705 51.8908 24.1651C52.7777 26.1177 57.9035 25.6991 63.3396 23.23C68.7756 20.7609 72.4635 17.1763 71.5765 15.2237C71.2685 14.5455 70.4491 14.1533 69.2829 14.0338C69.5425 14.1393 69.724 14.291 69.8148 14.491C70.3998 15.7788 67.0041 18.5806 62.2303 20.7488C57.4566 22.9171 53.1125 23.6308 52.5275 22.343C52.4303 22.129 52.443 21.8732 52.5537 21.5855Z" fill="#050187"/>
<path d="M61.7652 19.254C62.7422 18.784 63.3932 17.9058 63.7058 17.4003C63.83 17.1996 63.7273 16.9476 63.5044 16.8699C61.6438 16.2207 60.0905 14.904 59.1453 13.1749L54.418 4.52627L58.1626 13.7414C58.8739 15.4917 59.0989 17.4018 58.814 19.2696C58.7693 19.5625 58.9768 19.829 59.273 19.8239C59.8481 19.8141 60.8054 19.7158 61.7652 19.254Z" fill="#F0B324"/>
<ellipse cx="65.838" cy="28.1595" rx="0.736353" ry="4.83889" transform="rotate(157.886 65.838 28.1595)" fill="#F0B324"/>
<path fill-rule="evenodd" clip-rule="evenodd" d="M4.9541 17.0779H3.58659V19.3922H4.9541C5.59316 19.3922 6.11123 18.8741 6.11123 18.235C6.11123 17.596 5.59316 17.0779 4.9541 17.0779ZM0.851562 14.7637V21.7064H4.9541C6.87129 21.7064 8.42548 20.1522 8.42548 18.235C8.42548 16.3179 6.87129 14.7637 4.9541 14.7637H0.851562Z" fill="white"/>
<rect x="0.851562" y="20.6543" width="2.73502" height="4.20773" fill="white"/>
<path fill-rule="evenodd" clip-rule="evenodd" d="M11.6853 14.7646V21.1814C11.6853 21.9948 12.3447 22.6541 13.1581 22.6541C13.9714 22.6541 14.6308 21.9948 14.6308 21.1814V14.7646H16.945V21.1814C16.945 23.2729 15.2495 24.9684 13.1581 24.9684C11.0666 24.9684 9.37109 23.2729 9.37109 21.1814V14.7646H11.6853Z" fill="white"/>
<rect x="18.7334" y="14.7646" width="2.73502" height="10.0986" fill="white"/>
<rect x="18.7334" y="22.3379" width="5.47005" height="2.52464" fill="white"/>
<path fill-rule="evenodd" clip-rule="evenodd" d="M26.0384 15.0748C26.7679 14.5712 27.6821 14.3805 28.5776 14.4709C30.0592 14.6205 30.8546 15.5304 31.2262 16.3559C31.4027 16.7482 31.4868 17.1202 31.5282 17.3877C31.5493 17.5238 31.5602 17.6391 31.566 17.7248C31.5688 17.7678 31.5704 17.8039 31.5713 17.8319C31.5718 17.8459 31.572 17.858 31.5722 17.8679L31.5723 17.8813L31.5724 17.8868L31.5724 17.8892L31.5724 17.8904C31.5724 17.8909 31.5724 17.8915 30.4152 17.8915C29.2581 17.8915 29.2581 17.892 29.2581 17.8925L29.2581 17.8935L29.2581 17.8954L29.2581 17.8986L29.2582 17.9031C29.2582 17.9044 29.2582 17.9051 29.2582 17.9051C29.2582 17.9051 29.2582 17.9048 29.2582 17.9044C29.2581 17.902 29.2578 17.8933 29.2569 17.8793C29.255 17.851 29.2507 17.8028 29.2412 17.7416C29.2215 17.6144 29.1835 17.4561 29.1158 17.3057C28.9989 17.0459 28.8174 16.8211 28.3451 16.7734C27.9106 16.7296 27.5645 16.8334 27.3533 16.9793C27.1649 17.1093 27.0558 17.2846 27.0455 17.543C27.0375 17.7435 27.0875 17.8602 27.2966 18.0292C27.5772 18.2561 27.9955 18.4447 28.6235 18.7163C28.6399 18.7234 28.6565 18.7305 28.6733 18.7378C29.2171 18.9727 29.9372 19.2838 30.5088 19.7485C31.1612 20.279 31.6733 21.0496 31.6733 22.134C31.6733 23.13 31.2009 23.8935 30.5219 24.3663C29.8888 24.807 29.1255 24.9685 28.4614 24.9685C26.7868 24.9685 25.8119 24.0818 25.3218 23.1797C25.0925 22.7576 24.9742 22.3477 24.9119 22.0512C24.8803 21.9005 24.8617 21.7723 24.8507 21.6771C24.8452 21.6294 24.8416 21.5894 24.8393 21.5585C24.8381 21.5431 24.8372 21.5298 24.8365 21.519C24.8362 21.5135 24.836 21.5087 24.8357 21.5044L24.8355 21.4986L24.8353 21.496L24.8353 21.4947C24.8353 21.4942 24.8352 21.4936 25.9913 21.4434C27.1473 21.3932 27.1473 21.3926 27.1472 21.3921L27.1472 21.391L27.1471 21.3891L27.1469 21.3857L27.1467 21.3814C27.1466 21.3795 27.1466 21.3795 27.1467 21.3814C27.147 21.3852 27.1479 21.3961 27.1499 21.4131C27.1538 21.4474 27.1618 21.5042 27.1767 21.5755C27.2077 21.723 27.2631 21.9051 27.3554 22.075C27.5085 22.3569 27.7687 22.6542 28.4614 22.6542C28.7891 22.6542 29.0531 22.569 29.1995 22.467C29.2648 22.4216 29.2981 22.3797 29.3169 22.3448C29.3344 22.3126 29.359 22.2511 29.359 22.134C29.359 21.8865 29.2799 21.7321 29.0488 21.5441C28.7545 21.3048 28.3255 21.1087 27.7051 20.8405C27.6802 20.8297 27.6548 20.8188 27.6291 20.8077C27.0954 20.5774 26.3921 20.274 25.8414 19.8287C25.1925 19.304 24.6898 18.5327 24.7331 17.4506C24.7741 16.4235 25.286 15.5943 26.0384 15.0748Z" fill="white"/>
<path fill-rule="evenodd" clip-rule="evenodd" d="M36.1954 14.7637H35.88L32.1982 24.8622H35.0385L35.4835 23.3891H38.801L39.246 24.8622H42.0863L38.4045 14.7637H38.0891H36.1954ZM38.1019 21.0749L37.1423 17.898L36.1826 21.0749H38.1019Z" fill="white"/>
<rect x="42.9277" y="20.6543" width="2.73502" height="4.20773" fill="white"/>
<path d="M45.9785 20.6543L49.0291 20.6543L50.9226 24.862H48.0824L45.9785 20.6543Z" fill="white"/>
<path fill-rule="evenodd" clip-rule="evenodd" d="M45.6628 17.0779H47.0303C47.6693 17.0779 48.0822 17.9116 48.0822 18.5506C48.0822 19.1897 47.6693 20.0233 47.0303 20.0233H45.6628V17.0779ZM42.9277 21.7064V14.7637H47.0303C48.9475 14.7637 50.5016 16.3179 50.5016 18.235C50.5016 20.1522 48.9475 21.7064 47.0303 21.7064H46.5746L45.663 20.1287V21.7064H42.9277Z" fill="white"/>
<path fill-rule="evenodd" clip-rule="evenodd" d="M116.877 17.0789H115.509V19.3932H116.877C117.516 19.3932 118.034 18.8751 118.034 18.236C118.034 17.597 117.516 17.0789 116.877 17.0789ZM112.774 14.7646V21.7074H116.877C118.794 21.7074 120.348 20.1532 120.348 18.236C120.348 16.3188 118.794 14.7646 116.877 14.7646H112.774Z" fill="white"/>
<rect x="112.774" y="20.6553" width="2.73502" height="4.20773" fill="white"/>
<path fill-rule="evenodd" clip-rule="evenodd" d="M105.726 14.7646V21.1814C105.726 21.9948 106.386 22.6541 107.199 22.6541C108.012 22.6541 108.672 21.9948 108.672 21.1814V14.7646H110.986V21.1814C110.986 23.2729 109.291 24.9684 107.199 24.9684C105.108 24.9684 103.412 23.2729 103.412 21.1814V14.7646H105.726Z" fill="white"/>
<rect x="83.5293" y="20.6543" width="2.73502" height="4.20773" fill="white"/>
<path d="M86.5801 20.6543L89.6307 20.6543L91.5242 24.862H88.6839L86.5801 20.6543Z" fill="white"/>
<path fill-rule="evenodd" clip-rule="evenodd" d="M86.2643 17.0779H87.6318C88.2709 17.0779 88.6838 17.9116 88.6838 18.5506C88.6838 19.1897 88.2709 20.0233 87.6318 20.0233H86.2643V17.0779ZM83.5293 21.7064V14.7637H87.6318C89.549 14.7637 91.1032 16.3179 91.1032 18.235C91.1032 20.1522 89.549 21.7064 87.6318 21.7064H87.1762L86.2646 20.1287V21.7064H83.5293Z" fill="white"/>
<path fill-rule="evenodd" clip-rule="evenodd" d="M96.995 22.4775C98.4658 22.4775 99.6582 21.2852 99.6582 19.8144C99.6582 18.3435 98.4658 17.1512 96.995 17.1512C95.5242 17.1512 94.3318 18.3435 94.3318 19.8144C94.3318 21.2852 95.5242 22.4775 96.995 22.4775ZM96.995 25.074C99.8998 25.074 102.255 22.7192 102.255 19.8144C102.255 16.9095 99.8998 14.5547 96.995 14.5547C94.0902 14.5547 91.7354 16.9095 91.7354 19.8144C91.7354 22.7192 94.0902 25.074 96.995 25.074Z" fill="white"/>
<path fill-rule="evenodd" clip-rule="evenodd" d="M74.1687 19.8156C74.1687 18.2579 75.4474 16.9754 77.0493 16.9754C77.5095 16.9754 78.1516 17.1317 78.6476 17.4429C79.1264 17.7432 79.3232 18.08 79.3232 18.4486H81.6375C81.6375 17.0285 80.7823 16.0501 79.8774 15.4824C78.9897 14.9256 77.9163 14.6611 77.0493 14.6611C74.1913 14.6611 71.8545 16.9579 71.8545 19.8156C71.8545 22.6733 74.1913 24.9701 77.0493 24.9701C78.275 24.9701 79.4902 24.558 80.4191 23.8341C81.3054 23.1434 81.9836 22.1184 82.0525 20.8675H82.0582V20.6687C82.0582 20.6648 82.0582 20.661 82.0582 20.6571H82.0582V19.1844H76.3778V20.8675H79.7284C79.6672 21.2778 79.4255 21.6744 78.9965 22.0087C78.4878 22.4052 77.7771 22.6558 77.0493 22.6558C75.4474 22.6558 74.1687 21.3733 74.1687 19.8156Z" fill="white"/>
</svg>
