<svg width="23" height="22" viewBox="0 0 23 22" fill="none" xmlns="http://www.w3.org/2000/svg">
<path d="M4.53669 10.7466C4.40242 10.9235 4.28366 11.0771 4.18577 11.2024C4.08789 11.0771 3.96913 10.9235 3.83485 10.7466C3.44556 10.2337 2.92723 9.52685 2.40961 8.74958C1.8911 7.97097 1.37812 7.12884 0.996156 6.34431C0.607606 5.54626 0.380525 4.85871 0.380525 4.37291C0.380525 2.27133 2.08419 0.567659 4.18577 0.567659C6.28735 0.567659 7.99102 2.27133 7.99102 4.37291C7.99102 4.85871 7.76394 5.54626 7.37539 6.34431C6.99343 7.12884 6.48045 7.97097 5.96194 8.74958C5.44432 9.52685 4.92599 10.2337 4.53669 10.7466ZM4.18577 6.14869C5.42337 6.14869 6.42664 5.14542 6.42664 3.90782C6.42664 2.67022 5.42337 1.66695 4.18577 1.66695C2.94817 1.66695 1.94491 2.67022 1.94491 3.90782C1.94491 5.14542 2.94817 6.14869 4.18577 6.14869Z" fill="#0505FB" stroke="#0505FB" stroke-width="0.76105"/>
<path d="M18.5367 10.5595C18.4024 10.7364 18.2837 10.89 18.1858 11.0153C18.0879 10.89 17.9691 10.7364 17.8349 10.5595C17.4456 10.0466 16.9272 9.33972 16.4096 8.56245C15.8911 7.78383 15.3781 6.9417 14.9962 6.15718C14.6076 5.35913 14.3805 4.67158 14.3805 4.18577C14.3805 2.08419 16.0842 0.380525 18.1858 0.380525C20.2874 0.380525 21.991 2.08419 21.991 4.18577C21.991 4.67158 21.7639 5.35913 21.3754 6.15718C20.9934 6.9417 20.4804 7.78383 19.9619 8.56245C19.4443 9.33972 18.926 10.0466 18.5367 10.5595ZM18.1858 5.96156C19.4234 5.96156 20.4266 4.95828 20.4266 3.72069C20.4266 2.48309 19.4234 1.47982 18.1858 1.47982C16.9482 1.47982 15.9449 2.48309 15.9449 3.72069C15.9449 4.95828 16.9482 5.96156 18.1858 5.96156Z" fill="#0505FB" stroke="#0505FB" stroke-width="0.76105"/>
<path d="M4.18579 11.643V13.6919C4.18579 16.3271 5.61837 18.754 7.92555 20.0273L8.0045 20.0709C10.1741 21.2682 12.8119 21.2435 14.9586 20.0056V20.0056C17.1499 18.742 18.5 16.4049 18.5 13.8754V11.643" stroke="#0505FB" stroke-dasharray="2.2 2.2"/>
</svg>
