<svg width="106" height="98" viewBox="0 0 106 98" fill="none" xmlns="http://www.w3.org/2000/svg">
<path d="M67.7545 40.2861H43.9491L32.9619 72.332H48.527L41.2023 97.9687L69.5857 62.2604H54.9362L67.7545 40.2861Z" fill="black"/>
<mask id="path-2-inside-1_729_16438" fill="white">
<path d="M64.9402 27.2147C67.7337 26.4031 69.3751 23.4573 68.1616 20.8134C66.2733 16.6992 63.613 12.9665 60.3086 9.82581C55.7265 5.47066 50.0703 2.41001 43.918 0.956583C37.7657 -0.496846 31.3379 -0.290948 25.2912 1.55324C19.2446 3.39743 13.7959 6.81379 9.50185 11.4533C5.20785 16.0927 2.22248 21.789 0.850766 27.96C-0.520947 34.131 -0.229825 40.5556 1.69439 46.5773C3.6186 52.5989 7.10692 58.0019 11.8029 62.234C15.1894 65.2859 19.1164 67.6501 23.3641 69.215C26.0939 70.2206 28.9041 68.3567 29.4976 65.5088C30.0911 62.661 28.2277 59.9201 25.5652 58.7479C23.122 57.6723 20.8551 56.2104 18.8555 54.4083C15.5449 51.4248 13.0857 47.6158 11.7292 43.3707C10.3726 39.1255 10.1674 34.5963 11.1344 30.2459C12.1015 25.8955 14.2061 21.8797 17.2333 18.609C20.2605 15.3382 24.1017 12.9298 28.3644 11.6297C32.6272 10.3296 37.1587 10.1844 41.496 11.209C45.8332 12.2337 49.8207 14.3914 53.051 17.4617C55.0021 19.3161 56.6347 21.4634 57.8958 23.8162C59.2701 26.3802 62.1467 28.0264 64.9402 27.2147Z"/>
</mask>
<path d="M64.9402 27.2147C67.7337 26.4031 69.3751 23.4573 68.1616 20.8134C66.2733 16.6992 63.613 12.9665 60.3086 9.82581C55.7265 5.47066 50.0703 2.41001 43.918 0.956583C37.7657 -0.496846 31.3379 -0.290948 25.2912 1.55324C19.2446 3.39743 13.7959 6.81379 9.50185 11.4533C5.20785 16.0927 2.22248 21.789 0.850766 27.96C-0.520947 34.131 -0.229825 40.5556 1.69439 46.5773C3.6186 52.5989 7.10692 58.0019 11.8029 62.234C15.1894 65.2859 19.1164 67.6501 23.3641 69.215C26.0939 70.2206 28.9041 68.3567 29.4976 65.5088C30.0911 62.661 28.2277 59.9201 25.5652 58.7479C23.122 57.6723 20.8551 56.2104 18.8555 54.4083C15.5449 51.4248 13.0857 47.6158 11.7292 43.3707C10.3726 39.1255 10.1674 34.5963 11.1344 30.2459C12.1015 25.8955 14.2061 21.8797 17.2333 18.609C20.2605 15.3382 24.1017 12.9298 28.3644 11.6297C32.6272 10.3296 37.1587 10.1844 41.496 11.209C45.8332 12.2337 49.8207 14.3914 53.051 17.4617C55.0021 19.3161 56.6347 21.4634 57.8958 23.8162C59.2701 26.3802 62.1467 28.0264 64.9402 27.2147Z" stroke="black" stroke-width="14" mask="url(#path-2-inside-1_729_16438)"/>
<mask id="path-3-inside-2_729_16438" fill="white">
<path d="M70.9247 70.4743C71.011 72.7765 72.9584 74.6039 75.2229 74.1802C78.827 73.5058 82.2792 72.1342 85.3802 70.1284C89.6535 67.3642 93.1017 63.4981 95.361 58.9376C97.6203 54.3772 98.6069 49.2916 98.2169 44.2172C97.8269 39.1428 96.0746 34.2677 93.145 30.1061C90.2153 25.9445 86.2169 22.6507 81.5713 20.5721C76.9258 18.4934 71.8054 17.707 66.7502 18.2958C61.695 18.8846 56.8924 20.8268 52.8489 23.9174C49.9147 26.1603 47.4592 28.9475 45.6087 32.113C44.446 34.1019 45.5096 36.5515 47.6477 37.4092C49.7859 38.2669 52.1814 37.1941 53.4645 35.2808C54.6739 33.4773 56.1752 31.8757 57.9152 30.5456C60.7658 28.3668 64.1515 26.9976 67.7153 26.5825C71.2792 26.1674 74.8889 26.7218 78.164 28.1872C81.439 29.6526 84.2578 31.9747 86.3231 34.9085C88.3885 37.8423 89.6238 41.2792 89.8987 44.8565C90.1737 48.4339 89.4781 52.0191 87.8854 55.2341C86.2926 58.4491 83.8617 61.1747 80.8491 63.1234C79.0102 64.3129 76.996 65.186 74.8903 65.7163C72.6563 66.2789 70.8384 68.1722 70.9247 70.4743Z"/>
</mask>
<path d="M70.9247 70.4743C71.011 72.7765 72.9584 74.6039 75.2229 74.1802C78.827 73.5058 82.2792 72.1342 85.3802 70.1284C89.6535 67.3642 93.1017 63.4981 95.361 58.9376C97.6203 54.3772 98.6069 49.2916 98.2169 44.2172C97.8269 39.1428 96.0746 34.2677 93.145 30.1061C90.2153 25.9445 86.2169 22.6507 81.5713 20.5721C76.9258 18.4934 71.8054 17.707 66.7502 18.2958C61.695 18.8846 56.8924 20.8268 52.8489 23.9174C49.9147 26.1603 47.4592 28.9475 45.6087 32.113C44.446 34.1019 45.5096 36.5515 47.6477 37.4092C49.7859 38.2669 52.1814 37.1941 53.4645 35.2808C54.6739 33.4773 56.1752 31.8757 57.9152 30.5456C60.7658 28.3668 64.1515 26.9976 67.7153 26.5825C71.2792 26.1674 74.8889 26.7218 78.164 28.1872C81.439 29.6526 84.2578 31.9747 86.3231 34.9085C88.3885 37.8423 89.6238 41.2792 89.8987 44.8565C90.1737 48.4339 89.4781 52.0191 87.8854 55.2341C86.2926 58.4491 83.8617 61.1747 80.8491 63.1234C79.0102 64.3129 76.996 65.186 74.8903 65.7163C72.6563 66.2789 70.8384 68.1722 70.9247 70.4743Z" stroke="black" stroke-width="14" mask="url(#path-3-inside-2_729_16438)"/>
</svg>
