<svg width="58" height="51" viewBox="0 0 58 51" fill="none" xmlns="http://www.w3.org/2000/svg">
<path fill-rule="evenodd" clip-rule="evenodd" d="M7.0641 19.6225C7.0641 19.6225 14.1282 10.9655 14.1282 7.0641C14.1282 3.1627 10.9655 0 7.0641 0C3.16271 0 0 3.1627 0 7.0641C0 10.9655 7.0641 19.6225 7.0641 19.6225ZM7.0641 9.4188C8.79806 9.4188 10.2037 8.01315 10.2037 6.2792C10.2037 4.54525 8.79806 3.1396 7.0641 3.1396C5.33015 3.1396 3.9245 4.54525 3.9245 6.2792C3.9245 8.01315 5.33015 9.4188 7.0641 9.4188Z" fill="#D9D9D9"/>
<path fill-rule="evenodd" clip-rule="evenodd" d="M50.9359 49.3661C50.9359 49.3661 58 40.7091 58 36.8077C58 32.9063 54.8373 29.7436 50.9359 29.7436C47.0345 29.7436 43.8718 32.9063 43.8718 36.8077C43.8718 40.7091 50.9359 49.3661 50.9359 49.3661ZM50.9359 39.1624C52.6699 39.1624 54.0755 37.7567 54.0755 36.0228C54.0755 34.2888 52.6699 32.8832 50.9359 32.8832C49.2019 32.8832 47.7963 34.2888 47.7963 36.0228C47.7963 37.7567 49.2019 39.1624 50.9359 39.1624Z" fill="#D9D9D9"/>
<path d="M7.06409 19.3334L7.94576 28.3705C8.33828 32.3939 10.056 36.1729 12.8292 39.1141L15.0529 41.4727C18.57 45.2029 23.9326 46.5524 28.7964 44.9311V44.9311C31.5787 44.0037 34.5911 44.0318 37.3556 45.0109L50.9359 49.8206" stroke="#D9D9D9" stroke-width="1.11538" stroke-dasharray="3.72 3.72"/>
</svg>
